<svg version="1.2" xmlns="http://www.w3.org/2000/svg" viewBox="0 0 1508 1509" width="1508" height="1509">
	<title>logo11-svg</title>
	<style>
		.s0 { fill: #cf1415 } 
		.s1 { fill: #db2424 } 
		.s2 { fill: #163ecc } 
		.s3 { fill: #2449db } 
	</style>
	<path id="Layer" class="s0" d="m1152 19c0 12.4-1.7 24.6-2 37-1 41.9-2.3 84 8.3 125 7.2 28.1 21.4 54.9 45.7 71.8 8.3 5.7 17.5 10.1 27 13.5 25.2 9 52.7 8.6 79 9.7 24 1.1 48 0 72-1 5.7-0.3 11.3-1 17-1 2.2 0 5.4 0.4 7-1.6 1.3-1.7 1-4.4 1-6.4v-16-60c0-24.4 0.5-48.2-5.7-72-3.5-13.3-8.6-26.2-15.6-38-22.5-37.5-64.3-56.7-106.7-60.8-18-1.8-36.9-0.2-55-0.2z"/>
	<path id="Layer" class="s1" d="m1335 276c3.2 1.3 6.6 1 10 1-3.2-1.3-6.6-1-10-1z"/>
	<path id="Layer" class="s2" d="m1402 355c-85.9 0-180.7-14.7-261 24.8-56.4 27.8-89 84.7-119.4 137.2-45.8 78.9-90.1 158.7-136.8 237-32.1 53.9-62.3 108.8-93.9 163-7.4 12.6-14.4 25.5-21.9 38-2.8 4.7-7.3 11.4-3.3 16.8 3.7 4.8 12.1 3.2 17.3 3.2 16.4 0 32.7 1 49 1 68.9 0 138 1.3 200-33.3 56.1-31.3 84.8-91.6 116-144.7 57.2-97.3 113.3-195.1 169.4-293 19.3-33.7 38.8-67.3 58-101 6.1-10.7 12.5-21.3 18.5-32 3.1-5.5 7-10.7 8.1-17zm-1290.7 0c-4.8 3.4 1.7 11.6 3.4 15 7.4 14.3 14.6 28.8 22.1 43 14.7 28 30.8 55.4 47.8 82 19.6 30.7 41.9 60.6 74.4 78.7 62.7 35 137.5 31.3 207 31.3h326c41.3 0 82.7-1 124-1h31c3.2 0 8.9 1 11.4-1.6 3.6-3.8-2.9-12-4.8-15.4-8.2-14.5-15.5-29.4-23.4-44-33.4-62.3-71.9-128.9-136.2-163.7-25.9-14-54-18.7-83-21.5-31.9-3-63.9-2.8-96-2.8h-219-72c-12.3 0-24.8 0.7-37-0.1-42.7-2.9-86.2-0.9-129-0.9h-33c-3.8 0-10.4-1.2-13.7 1z"/>
	<path id="Layer" class="s3" d="m283 354c3.4 1.4 7.3 1 11 1h21 74 257c-3.7-1.6-8-1-12-1h-21-74z"/>
	<path id="Layer" class="s2" d="m540 618.1c-3.8 0.7-6 5-7.8 7.9-4.9 7.7-10 15.3-14.9 23-20.6 32.5-41.3 65-57.4 100-22.9 49.9-36.1 104.3-24.2 159 7.2 33.6 24.4 62.7 41.5 92 15.3 26.2 30.3 52.7 45.4 79 40.5 70.7 80.4 141.9 122 212 27.2 45.9 54.7 92.1 80.2 139 6 11.2 12.7 22 19.1 33 2.1 3.7 4.6 10.6 10 9.6 3.8-0.7 5.8-5.7 7.7-8.6 4.5-7.4 9.5-14.7 14.3-22 20.1-30.9 39.9-62 56.3-95 12.4-24.7 22.4-51.7 27.3-79 6.1-33.8 3.8-69.3-6.5-102-8.2-25.8-21.2-48.7-34.6-72q-23.6-41.1-47.5-82c-41.3-70.3-80.3-142-122.1-212-27.6-46.2-53.1-93.7-80.6-140-6.5-10.9-12.3-22.1-18.8-33-1.9-3.3-4.6-9.8-9.4-8.9z"/>
</svg>